<?xml version="1.0" encoding="utf-8"?>
<!-- Generator: Adobe Illustrator 23.0.1, SVG Export Plug-In . SVG Version: 6.00 Build 0)  -->
<svg version="1.1" id="Layer_1" xmlns="http://www.w3.org/2000/svg" xmlns:xlink="http://www.w3.org/1999/xlink" x="0px" y="0px"
	 viewBox="0 0 300 300" style="enable-background:new 0 0 300 300;" xml:space="preserve">
<style type="text/css">
	.st0{fill:#E3E4E5;}
	.st1{fill:#231F20;}
</style>
<path class="st0" d="M240.6,116.4c0-10.9,2.6-20.5,6.1-28.3l6.8-15.5l-16.1-4.7c-7-2.1-12.1-7.3-15.1-15.7l-7.1-19.4l-15.8,13.1
	c-5.2,4.3-11.1,7.1-17.4,7.1c-8.4,0-16.8-4.2-22-9.4l-10.2-10.1l-10.2,10.1c-5.2,5.2-13.6,9.4-22,9.4c-6.3,0-12.2-2.8-17.4-7.1
	l-15.9-13l-7.1,19.4c-3,8.4-8.1,13.6-15.1,15.7L46,72.7l6.8,15.5c3.4,7.8,6,17.4,6,28.3c0,26.5-13,31.7-13,59.5
	c0,37.2,27.7,63.9,58.4,71.8c15.2,3.8,22.2,4.2,33.5,7.4c1.5,1.5,11.9,12.8,11.9,12.8s10.4-11.3,11.9-12.8
	c11.3-3.2,18.4-3.5,33.5-7.4c30.7-7.9,58.4-34.6,58.4-71.8C253.5,148.2,240.6,142.9,240.6,116.4 M193.4,240.6
	c-16.2,4.1-27.4,5.2-35.7,8.1c-1.1,1-7.9,8.4-7.9,8.4s-6.9-7.5-7.9-8.4c-8.2-3-19.5-4-35.7-8.1c-34.3-8.6-53-37.3-53-64.6
	c0-24.8,13-32.5,13-59.6c0-21.1-10.1-39-10.1-39s24.8-2.2,31.5-32.3c0,0,14.9,15.3,29.9,15.3c19.4,0,32.2-16.5,32.2-16.5
	s12.8,16.5,32.2,16.5c15.1,0,29.9-15.3,29.9-15.3c6.7,30.1,31.5,32.3,31.5,32.3s-10.1,17.8-10.1,39c0,27.1,13,34.8,13,59.6
	C246.3,203.3,227.5,232,193.4,240.6"/>
<path class="st0" d="M226,116.4c0-19.3,7.3-34.2,7.3-34.2s-16.9-3.4-24.7-24.8c0,0-11.2,10.5-26.6,10.5c-19.4,0-32.2-13.6-32.2-13.6
	S137,67.9,117.6,67.9C102.2,67.9,91,57.4,91,57.4c-8,21.3-24.8,24.7-24.8,24.7s7.3,14.9,7.3,34.2c0,28.7-13,37-13,59.6
	c0,31.6,24.6,51.7,47.4,57.5c18.1,4.6,29.9,5.1,37.8,8.9c0,0,2.9,2.6,4,3.8c1.1-1.2,4-3.8,4-3.8c7.9-3.8,19.7-4.4,37.8-8.9
	c22.8-5.8,47.4-25.9,47.4-57.5C239,153.4,226,145.1,226,116.4 M81.7,116.4c0-12.3-2.6-22.9-4.9-29.7c5.3-2.9,12-8.1,17.3-17
	c5.7,3.2,13.8,6.4,23.4,6.4c14.5,0,25.7-6.3,32.2-11c6.5,4.7,17.8,11,32.2,11c2.3,0,4.5-0.2,6.7-0.5L70.3,164.4
	C73.7,151.1,81.7,140,81.7,116.4 M97.9,220.8c-15.1-7.8-28.4-22.7-29-43.2L207.7,73.3c4.8,6.7,10.4,10.9,15,13.4
	c-2.3,6.9-5,17.4-5,29.7c0,5.1,0.4,9.6,1,13.7L97.9,220.8z M189.5,225.4c-14.3,3.6-31.8,5.5-37.1,8.5c-1.2,0.9-2.7,2.4-2.7,2.4
	s-1.5-1.6-2.7-2.4c-5.3-3-22.8-4.9-37.1-8.5c-0.5-0.1-1.1-0.3-1.6-0.4L221,140.4c3.8,13.4,9.7,22.2,9.7,35.6
	C230.7,202.8,209.3,220.4,189.5,225.4"/>
<path class="st0" d="M120.4,177.7l-13-19.9L93,168.6c0,0,5,0.1,5,5.4v37.4l10.2-7.6v-26.5l11.6,17.8l10.7-8.1v-46.6l-10.2,7.6
	L120.4,177.7L120.4,177.7z"/>
<path class="st0" d="M161.6,134.3l-11.5,8.6v-17.2l-15.5,11.6c0,0,5.1,0.1,5.1,5.4v37.4l10.5-7.9v-17.1l11.5-8.6v17.1l9.9-7.5v-46.6
	l-9.9,7.5v17.3H161.6z"/>
<path class="st0" d="M190.7,130V95.3l-15.5,11.6c0,0,5,0.1,5,5.4v37.4L209,128c-0.6-7.5,0-11.9,0-11.9L190.7,130z"/>
<path class="st1" d="M211.9,45.1c0,0-14.9,15.3-29.9,15.3c-19.4,0-32.2-16.5-32.2-16.5S137,60.4,117.6,60.4
	c-15.1,0-29.9-15.3-29.9-15.3C81,75.2,56.2,77.4,56.2,77.4s10.1,17.8,10.1,39c0,27.1-13,34.8-13,59.6c0,27.3,18.7,56,52.9,64.7
	c16.2,4.1,27.5,5.2,35.7,8.1c1.1,1,7.9,8.4,7.9,8.4s6.9-7.5,7.9-8.4c8.3-3,19.5-4,35.7-8.1c34.2-8.6,52.9-37.3,52.9-64.7
	c0-24.8-13-32.5-13-59.6c0-21.1,10.1-39,10.1-39S218.6,75.2,211.9,45.1 M226,116.4c0,28.7,13,37,13,59.6c0,31.6-24.6,51.7-47.4,57.5
	c-18.1,4.6-29.9,5.1-37.8,8.9c0,0-2.9,2.6-4,3.8c-1.1-1.2-4-3.8-4-3.8c-7.9-3.8-19.7-4.4-37.8-8.9c-22.8-5.8-47.4-25.9-47.4-57.5
	c0-22.6,13-30.9,13-59.6c0-19.3-7.3-34.2-7.3-34.2S83,78.7,90.9,57.4c0,0,11.2,10.4,26.6,10.4c19.4,0,32.2-13.6,32.2-13.6
	s12.9,13.6,32.2,13.6c15.5,0,26.7-10.4,26.7-10.4c7.9,21.4,24.7,24.8,24.7,24.8S226,97,226,116.4"/>
<path class="st1" d="M225.2,51.1l-8.6-23.6l-19.3,16c-5.1,4.2-10.3,6.4-15.4,6.4c-6.8,0-14.6-3.3-19.8-8.5l-12.4-12.3l-12.4,12.3
	c-5.2,5.1-13,8.5-19.8,8.5c-5.1,0-10.3-2.2-15.4-6.4l-19.3-16l-8.6,23.6c-2.7,7.4-7.1,12-13,13.7l-19.6,5.8l8.3,18.8
	c3.8,8.7,5.8,17.8,5.8,27c0,25.5-13,31.2-13,59.5c0,40.7,31.5,67.4,60.8,74.9c14.8,3.6,19.3,3.8,32.6,7.1
	c1.1,1.2,13.6,14.7,13.6,14.7s12.5-13.5,13.6-14.7c13.4-3.3,17.8-3.5,32.6-7.1c29.3-7.5,60.8-34.2,60.8-74.9c0-28.3-13-34.1-13-59.5
	c0-9.2,1.9-18.3,5.8-27l8.3-18.8l-19.6-5.8C232.3,63.1,227.9,58.5,225.2,51.1 M246.6,88.2c-3.4,7.8-6.1,17.4-6.1,28.3
	c0,26.5,13,31.7,13,59.5c0,37.2-27.7,63.9-58.4,71.8c-15.2,3.8-22.2,4.2-33.5,7.4c-1.5,1.5-11.9,12.8-11.9,12.8
	s-10.4-11.3-11.9-12.8c-11.3-3.2-18.3-3.5-33.5-7.4c-30.7-7.9-58.4-34.6-58.4-71.8c0-27.8,13-33.1,13-59.5c0-10.8-2.6-20.5-6.1-28.3
	L46,72.7L62.1,68c7-2.1,12.1-7.4,15.1-15.7l7.1-19.4L100.1,46c5.2,4.3,11.1,7.1,17.4,7.1c8.5,0,16.8-4.2,22.1-9.4l10.2-10.1
	L160,43.7c5.2,5.2,13.6,9.4,22,9.4c6.3,0,12.2-2.8,17.4-7.1l15.8-13.1l7.1,19.4c3.1,8.3,8.1,13.6,15.1,15.7l16.1,4.7L246.6,88.2z"/>
<path class="st1" d="M207.7,73.3L68.8,177.6c0.7,20.5,13.9,35.4,29.1,43.2l120.8-90.7c-0.6-4.1-1-8.6-1-13.7c0-12.3,2.7-22.9,5-29.7
	C218.1,84.2,212.5,80,207.7,73.3 M130.6,187.1l-10.7,8.1l-11.6-17.8v26.5l-10.2,7.6V174c0-5.3-5-5.4-5-5.4l14.4-10.8l13,19.9V148
	l10.2-7.6v46.7H130.6z M171.6,156.3l-9.9,7.5v-17.1l-11.5,8.6v17.1l-10.5,7.9v-37.4c0-5.3-5.1-5.4-5.1-5.4l15.5-11.6v17.2l11.5-8.6
	v-17.2l9.9-7.5v46.5H171.6z M209.1,128.1l-28.8,21.7v-37.4c0-5.3-5-5.4-5-5.4l15.5-11.6V130l18.4-13.8
	C209.1,116.2,208.5,120.6,209.1,128.1"/>
<path class="st1" d="M181.9,76.1c-14.4,0-25.7-6.3-32.2-11c-6.5,4.7-17.7,11-32.2,11c-9.5,0-17.7-3.2-23.4-6.4
	c-5.3,8.9-12,14.1-17.3,17c2.3,6.9,4.9,17.4,4.9,29.7c0,23.6-8.1,34.7-11.5,48.1l118.3-88.9C186.5,75.9,184.2,76.1,181.9,76.1"/>
<path class="st1" d="M108.3,225c0.5,0.1,1.1,0.3,1.6,0.4c14.3,3.6,31.8,5.5,37.1,8.5c1.2,0.9,2.7,2.4,2.7,2.4s1.5-1.6,2.7-2.4
	c5.3-3,22.8-4.9,37.1-8.5c19.8-5,41.2-22.7,41.2-49.4c0-13.4-5.9-22.2-9.7-35.6L108.3,225z"/>
<path class="st1" d="M244.6,248.9c0-4.6-3.7-8.4-8.4-8.4c-4.6,0-8.4,3.7-8.4,8.4c0,4.6,3.7,8.4,8.4,8.4
	C240.9,257.2,244.6,253.5,244.6,248.9 M229.7,248.9c0-3.6,2.9-6.6,6.6-6.6c3.6,0,6.6,2.9,6.6,6.6c0,3.6-2.9,6.6-6.6,6.6
	C232.6,255.4,229.7,252.5,229.7,248.9"/>
<path class="st1" d="M239.7,253.7l-1.9-4c1.1-0.4,1.9-1.4,1.9-2.7c0-1.6-1.3-2.8-2.8-2.8h-4v9.6h1.8v-3.9h1.3l1.8,3.9h1.9V253.7z
	 M236.8,248h-2.2v-2.1h2.2c0.6,0,1,0.5,1,1C237.9,247.5,237.4,248,236.8,248"/>
</svg>
